<svg xmlns="http://www.w3.org/2000/svg" xmlns:xlink="http://www.w3.org/1999/xlink" width="20" height="20" viewBox="0 0 20 20"><defs><style>.a,.c{fill:#ffb92e;}.a{stroke:rgba(0,0,0,0);}.b{clip-path:url(#a);}</style><clipPath id="a"><rect class="a" width="20" height="20" transform="translate(690.5 107.164)"/></clipPath></defs><g class="b" transform="translate(-690.5 -107.164)"><path class="c" d="M19.99,62.306V49.586a1.242,1.242,0,0,0-1.38-1.38H10.78a.961.961,0,0,1-.71-.25s-.34-.58-.92-1.51c-.61-.95-1.35-.8-1.35-.8H1.72A1.682,1.682,0,0,0,0,47.316v14.89c0,1.84,1.38,1.63,1.38,1.63H18.73c1.47,0,1.26-1.53,1.26-1.53Zm-3.25-8.82H3.26a.913.913,0,0,1,0-1.82H16.73a.881.881,0,0,1,.84.91.866.866,0,0,1-.83.91Z" transform="translate(690.5 62.424)"/></g></svg>