<svg xmlns="http://www.w3.org/2000/svg" xmlns:xlink="http://www.w3.org/1999/xlink" width="20" height="20" viewBox="0 0 20 20"><defs><style>.a{fill:rgba(0,0,0,0);stroke:rgba(0,0,0,0);}.b{clip-path:url(#a);}.c{fill:#5868f3;}.d{fill:#fff;}</style><clipPath id="a"><rect class="a" width="20" height="20" transform="translate(800 117)"/></clipPath></defs><g class="b" transform="translate(-800 -117)"><g transform="translate(800 117)"><path class="c" d="M10.291,20.343a10,10,0,1,0,10.1-10.051A10.161,10.161,0,0,0,10.291,20.343Z" transform="translate(-10.291 -10.291)"/><path class="d" d="M209.24,443.045a1.052,1.052,0,0,0-.825-.513.839.839,0,0,0-.825.923.375.375,0,0,0,.1.308,1.6,1.6,0,0,1-.309,1.641l-2.371,2.359a1.381,1.381,0,0,1-2.062,0,1.365,1.365,0,0,1,0-2.051l.825-.82a.929.929,0,0,0,.309-.718.84.84,0,0,0-.928-.82,1.109,1.109,0,0,0-.619.205l-.928.923a3.333,3.333,0,0,0,0,4.615,3.375,3.375,0,0,0,4.639,0l2.371-2.359A3.479,3.479,0,0,0,209.24,443.045Z" transform="translate(-196.868 -433.917)"/><path class="d" d="M397.02,201.607a3.375,3.375,0,0,0-4.639,0l-2.268,2.256a3,3,0,0,0-.619,3.59.919.919,0,0,0,.825.513.839.839,0,0,0,.825-.923.376.376,0,0,0-.1-.308,1.3,1.3,0,0,1,.309-1.641l2.268-2.256a1.381,1.381,0,0,1,2.062,0,1.365,1.365,0,0,1,0,2.051l-.825.821a1.1,1.1,0,0,0-.206.82.84.84,0,0,0,.928.821.893.893,0,0,0,.619-.308l.928-.923a3.31,3.31,0,0,0-.1-4.513Z" transform="translate(-381.556 -196.889)"/></g></g></svg>