<svg xmlns="http://www.w3.org/2000/svg" xmlns:xlink="http://www.w3.org/1999/xlink" width="22" height="22" viewBox="0 0 22 22"><defs><style>.a,.c{fill:#5868f3;}.a{stroke:rgba(0,0,0,0);}.b{clip-path:url(#a);}</style><clipPath id="a"><rect class="a" width="22" height="22"/></clipPath></defs><g class="b"><path class="c" d="M56.27,50.8h4a3.106,3.106,0,0,1,3.106,3.106v6.357a3.106,3.106,0,0,1-3.106,3.106H53.91A3.106,3.106,0,0,1,50.8,60.263V56.27h1.325a4.141,4.141,0,0,0,4.141-4.141V50.8ZM45.634,57.445A2.955,2.955,0,0,0,48.591,60.4v1.484A4.438,4.438,0,0,1,44.158,57.7l-.007-.254h1.483ZM58.1,54.489h-1.5l-2.13,5.877H55.7l.442-1.244h2.322l.442,1.244h1.266L58.1,54.489Zm-.735,1.148.791,2.514H56.467l.861-2.513h.04Zm-5.238-12.97a3.106,3.106,0,0,1,3.106,3.106v6.357a3.106,3.106,0,0,1-3.106,3.106H45.773a3.106,3.106,0,0,1-3.106-3.106V45.773a3.106,3.106,0,0,1,3.106-3.106h6.357Zm-2.823,2.6H48.231v1.556h-2.61v3.71H46.7v-.574h1.555v2.727H49.4V49.96h1.591v.478h1.173V46.814h-2.76v-.791l0-.152a1.741,1.741,0,0,1,.091-.446l.036-.1c0-.009-.011-.018-.035-.024l-.11-.023-.085-.013ZM48.254,47.7V49.1H46.7V47.7h1.555Zm2.739,0v1.4H49.4V47.7h1.591Zm6.449-3.55a4.437,4.437,0,0,1,4.431,4.187l.007.25H60.4a2.952,2.952,0,0,0-2.954-2.955V44.15Z" transform="translate(-42.022 -42.017)"/></g></svg>