<svg xmlns="http://www.w3.org/2000/svg" xmlns:xlink="http://www.w3.org/1999/xlink" width="20" height="20" viewBox="0 0 20 20"><defs><style>.a{fill:rgba(0,0,0,0);stroke:rgba(0,0,0,0);}.b{clip-path:url(#a);}.c{fill:#e54a4f;}</style><clipPath id="a"><rect class="a" width="20" height="20" transform="translate(368.5 -270.393)"/></clipPath></defs><g class="b" transform="translate(-368.5 270.393)"><path class="c" d="M79.29,100.2q.274,0,.549.026a1.114,1.114,0,0,1,1.012,1.112v12.54a1.115,1.115,0,0,1-1.076,1.114,9.943,9.943,0,0,0-2.752.436,7.966,7.966,0,0,0-2.871,1.791V103.2a5.959,5.959,0,0,1,5.138-3Zm2.679,13.942V102.7a1.11,1.11,0,0,1,.789.327,1.123,1.123,0,0,1,.327.789v11.354a2.041,2.041,0,0,1-2.233,2.178,15.933,15.933,0,0,0-2.256-.125,17,17,0,0,0-3.566.27,5.976,5.976,0,0,1,2.35-1.116,14.884,14.884,0,0,1,2.46-.24A2.109,2.109,0,0,0,81.97,114.142ZM67.9,100.2a5.959,5.959,0,0,1,5.138,3v14.025a7.908,7.908,0,0,0-2.871-1.791A9.937,9.937,0,0,0,67.413,115a1.113,1.113,0,0,1-1.074-1.116V101.338a1.114,1.114,0,0,1,1.012-1.11A5.2,5.2,0,0,1,67.9,100.2Zm-2.679,13.942a2.04,2.04,0,0,0,2.152,1.993c.974.036,1.582.142,2.439.24a4.638,4.638,0,0,1,2.367,1.116,15.6,15.6,0,0,0-3.585-.27c-.863,0-1.014.125-2.256.125a2.276,2.276,0,0,1-2.235-2.178V103.813a1.116,1.116,0,0,1,1.116-1.116v11.445Zm0,0" transform="translate(304.907 -369.238)"/></g></svg>