<svg xmlns="http://www.w3.org/2000/svg" xmlns:xlink="http://www.w3.org/1999/xlink" width="20" height="20" viewBox="0 0 20 20"><defs><style>.a,.c{fill:#00b164;}.a{stroke:rgba(0,0,0,0);}.b{clip-path:url(#a);}</style><clipPath id="a"><rect class="a" width="20" height="20" transform="translate(585.494 116.994)"/></clipPath></defs><g class="b" transform="translate(-585.494 -116.994)"><path class="c" d="M19.687.125a.691.691,0,0,1,.3.713L17.131,17.971a.711.711,0,0,1-.358.5.7.7,0,0,1-.345.09.733.733,0,0,1-.267-.057L11.11,16.442l-2.7,3.3a.656.656,0,0,1-.55.25.621.621,0,0,1-.247-.045.719.719,0,0,1-.47-.67V15.384L16.781,3.571,4.857,13.894.452,12.084A.649.649,0,0,1,0,11.469a.663.663,0,0,1,.358-.66L18.925.1a.676.676,0,0,1,.357-.1.7.7,0,0,1,.4.125Zm0,0" transform="translate(585.494 116.999)"/></g></svg>