<svg xmlns="http://www.w3.org/2000/svg" width="17.998" height="16.018" viewBox="0 0 17.998 16.018"><defs><style>.a{fill:#5868f3;}</style></defs><g transform="translate(-74.688 -75.679)"><path class="a" d="M17,11.233,9.138,14.505,1.007,11.116a.728.728,0,0,0-.557,1.343l8.414,3.5a.718.718,0,0,0,.562,0l8.126-3.384A.728.728,0,0,0,17,11.233ZM.451,4.792,8.865,8.3a.718.718,0,0,0,.562,0l8.126-3.418a.733.733,0,0,0,0-1.348L9.138.055a.781.781,0,0,0-.576,0L.455,3.42a.723.723,0,0,0-.4.41.728.728,0,0,0,.391.962ZM2.6,4.113h0ZM17,7.507,9.138,10.779,1.007,7.395A.728.728,0,0,0,.451,8.738l8.414,3.5a.718.718,0,0,0,.562,0l8.126-3.384A.728.728,0,0,0,17,7.512Z" transform="translate(74.688 75.679)"/></g></svg>